<?xml version="1.0" encoding="utf-8"?>
<!-- Generator: Adobe Illustrator 27.5.0, SVG Export Plug-In . SVG Version: 6.00 Build 0)  -->
<svg version="1.1" xmlns="http://www.w3.org/2000/svg" xmlns:xlink="http://www.w3.org/1999/xlink" x="0px" y="0px"
	 viewBox="0 0 500 500" style="enable-background:new 0 0 500 500;" xml:space="preserve">
<g id="BACKGROUND">
	<rect x="0" style="fill:#B3CCC4;" width="500" height="500"/>
</g>
<g id="OBJECTS">
	<g style="display:none;">
		<g style="display:inline;">
			<line style="fill:none;stroke:#FF5C5C;stroke-miterlimit:10;" x1="39.11" y1="0" x2="39.11" y2="500"/>
			<line style="fill:none;stroke:#FF5C5C;stroke-miterlimit:10;" x1="77.453" y1="0" x2="77.453" y2="500"/>
			<line style="fill:none;stroke:#FF5C5C;stroke-miterlimit:10;" x1="115.797" y1="0" x2="115.797" y2="500"/>
			<line style="fill:none;stroke:#FF5C5C;stroke-miterlimit:10;" x1="154.141" y1="0" x2="154.141" y2="500"/>
			<line style="fill:none;stroke:#FF5C5C;stroke-miterlimit:10;" x1="192.484" y1="0" x2="192.484" y2="500"/>
			<line style="fill:none;stroke:#FF5C5C;stroke-miterlimit:10;" x1="230.828" y1="0" x2="230.828" y2="500"/>
			<line style="fill:none;stroke:#FF5C5C;stroke-miterlimit:10;" x1="269.172" y1="0" x2="269.172" y2="500"/>
			<line style="fill:none;stroke:#FF5C5C;stroke-miterlimit:10;" x1="307.516" y1="0" x2="307.516" y2="500"/>
			<line style="fill:none;stroke:#FF5C5C;stroke-miterlimit:10;" x1="345.859" y1="0" x2="345.859" y2="500"/>
			<line style="fill:none;stroke:#FF5C5C;stroke-miterlimit:10;" x1="384.203" y1="0" x2="384.203" y2="500"/>
			<line style="fill:none;stroke:#FF5C5C;stroke-miterlimit:10;" x1="422.547" y1="0" x2="422.547" y2="500"/>
			<line style="fill:none;stroke:#FF5C5C;stroke-miterlimit:10;" x1="460.89" y1="0" x2="460.89" y2="500"/>
		</g>
		<g style="display:inline;">
			<line style="fill:none;stroke:#FF5C5C;stroke-miterlimit:10;" x1="500" y1="39.11" x2="0" y2="39.11"/>
			<line style="fill:none;stroke:#FF5C5C;stroke-miterlimit:10;" x1="500" y1="77.453" x2="0" y2="77.453"/>
			<line style="fill:none;stroke:#FF5C5C;stroke-miterlimit:10;" x1="500" y1="115.797" x2="0" y2="115.797"/>
			<line style="fill:none;stroke:#FF5C5C;stroke-miterlimit:10;" x1="500" y1="154.141" x2="0" y2="154.141"/>
			<line style="fill:none;stroke:#FF5C5C;stroke-miterlimit:10;" x1="500" y1="192.484" x2="0" y2="192.484"/>
			<line style="fill:none;stroke:#FF5C5C;stroke-miterlimit:10;" x1="500" y1="230.828" x2="0" y2="230.828"/>
			<line style="fill:none;stroke:#FF5C5C;stroke-miterlimit:10;" x1="500" y1="269.172" x2="0" y2="269.172"/>
			<line style="fill:none;stroke:#FF5C5C;stroke-miterlimit:10;" x1="500" y1="307.516" x2="0" y2="307.516"/>
			<line style="fill:none;stroke:#FF5C5C;stroke-miterlimit:10;" x1="500" y1="345.859" x2="0" y2="345.859"/>
			<line style="fill:none;stroke:#FF5C5C;stroke-miterlimit:10;" x1="500" y1="384.203" x2="0" y2="384.203"/>
			<line style="fill:none;stroke:#FF5C5C;stroke-miterlimit:10;" x1="500" y1="422.547" x2="0" y2="422.547"/>
			<line style="fill:none;stroke:#FF5C5C;stroke-miterlimit:10;" x1="500" y1="460.89" x2="0" y2="460.89"/>
		</g>
	</g>
	<g>
		<g>
			<path style="fill:#91B8AB;" d="M88.875,323.007H64.386c-2.169,0-3.927-1.758-3.927-3.927v0c0-2.169,1.758-3.927,3.927-3.927
				h24.489c2.169,0,3.927,1.758,3.927,3.927v0C92.802,321.249,91.044,323.007,88.875,323.007z"/>
			<path style="fill:#91B8AB;" d="M133.724,330.054h-72c-0.699,0-1.266-0.567-1.266-1.266l0,0c0-0.699,0.567-1.266,1.266-1.266h72
				c0.699,0,1.266,0.567,1.266,1.266l0,0C134.989,329.487,134.423,330.054,133.724,330.054z"/>
			<path style="fill:#91B8AB;" d="M133.724,336.241h-72c-0.699,0-1.266-0.567-1.266-1.266l0,0c0-0.699,0.567-1.266,1.266-1.266h72
				c0.699,0,1.266,0.567,1.266,1.266l0,0C134.989,335.675,134.423,336.241,133.724,336.241z"/>
			<path style="fill:#91B8AB;" d="M92.802,342.429H61.724c-0.699,0-1.266-0.567-1.266-1.266l0,0c0-0.699,0.567-1.266,1.266-1.266
				h31.078c0.699,0,1.266,0.567,1.266,1.266l0,0C94.068,341.862,93.501,342.429,92.802,342.429z"/>
		</g>
		<g>
			<path style="fill:#91B8AB;" d="M88.875,360.411H64.386c-2.169,0-3.927-1.758-3.927-3.927v0c0-2.169,1.758-3.927,3.927-3.927
				h24.489c2.169,0,3.927,1.758,3.927,3.927v0C92.802,358.653,91.044,360.411,88.875,360.411z"/>
			<path style="fill:#91B8AB;" d="M133.724,367.458h-72c-0.699,0-1.266-0.567-1.266-1.266l0,0c0-0.699,0.567-1.266,1.266-1.266h72
				c0.699,0,1.266,0.567,1.266,1.266l0,0C134.989,366.891,134.423,367.458,133.724,367.458z"/>
			<path style="fill:#91B8AB;" d="M133.724,373.645h-72c-0.699,0-1.266-0.567-1.266-1.266l0,0c0-0.699,0.567-1.266,1.266-1.266h72
				c0.699,0,1.266,0.567,1.266,1.266l0,0C134.989,373.079,134.423,373.645,133.724,373.645z"/>
			<path style="fill:#91B8AB;" d="M92.802,379.833H61.724c-0.699,0-1.266-0.567-1.266-1.266l0,0c0-0.699,0.567-1.266,1.266-1.266
				h31.078c0.699,0,1.266,0.567,1.266,1.266l0,0C94.068,379.266,93.501,379.833,92.802,379.833z"/>
		</g>
		<g>
			<polygon style="fill:#EDE5DA;" points="318.04,220.683 218.739,220.683 234.944,86.924 334.246,86.924 			"/>
			<g>
				<g>
					<polygon style="fill:#B3CCC4;" points="279.174,104.106 248.411,104.106 248.717,101.575 279.481,101.575 					"/>
					<line style="fill:none;stroke:#FFFFFF;stroke-miterlimit:10;" x1="247.916" y1="108.184" x2="316.122" y2="108.184"/>
					<line style="fill:none;stroke:#FFFFFF;stroke-miterlimit:10;" x1="247.504" y1="111.588" x2="315.71" y2="111.588"/>
					<line style="fill:none;stroke:#FFFFFF;stroke-miterlimit:10;" x1="247.092" y1="114.992" x2="315.297" y2="114.992"/>
					<line style="fill:none;stroke:#FFFFFF;stroke-miterlimit:10;" x1="246.679" y1="118.396" x2="271.204" y2="118.396"/>
				</g>
				<g>
					<polygon style="fill:#FFFFFF;" points="275.635,133.319 244.871,133.319 245.178,130.787 275.942,130.787 					"/>
					<line style="fill:none;stroke:#FFFFFF;stroke-miterlimit:10;" x1="244.377" y1="137.397" x2="312.583" y2="137.397"/>
					<line style="fill:none;stroke:#FFFFFF;stroke-miterlimit:10;" x1="243.965" y1="140.8" x2="312.17" y2="140.8"/>
					<line style="fill:none;stroke:#FFFFFF;stroke-miterlimit:10;" x1="243.553" y1="144.204" x2="311.758" y2="144.204"/>
					<line style="fill:none;stroke:#FFFFFF;stroke-miterlimit:10;" x1="243.14" y1="147.608" x2="267.665" y2="147.608"/>
				</g>
				<g>
					<polygon style="fill:#B3CCC4;" points="272.096,162.531 241.332,162.531 241.639,159.999 272.403,159.999 					"/>
					<line style="fill:none;stroke:#FFFFFF;stroke-miterlimit:10;" x1="240.838" y1="166.609" x2="309.044" y2="166.609"/>
					<line style="fill:none;stroke:#FFFFFF;stroke-miterlimit:10;" x1="240.426" y1="170.012" x2="308.631" y2="170.012"/>
					<line style="fill:none;stroke:#FFFFFF;stroke-miterlimit:10;" x1="240.014" y1="173.416" x2="308.219" y2="173.416"/>
					<line style="fill:none;stroke:#FFFFFF;stroke-miterlimit:10;" x1="239.601" y1="176.82" x2="264.126" y2="176.82"/>
				</g>
				<g>
					<polygon style="fill:#B3CCC4;" points="268.557,191.743 237.793,191.743 238.1,189.212 268.864,189.212 					"/>
					<line style="fill:none;stroke:#FFFFFF;stroke-miterlimit:10;" x1="237.299" y1="195.821" x2="305.505" y2="195.821"/>
					<line style="fill:none;stroke:#FFFFFF;stroke-miterlimit:10;" x1="236.887" y1="199.225" x2="305.092" y2="199.225"/>
					<line style="fill:none;stroke:#FFFFFF;stroke-miterlimit:10;" x1="236.474" y1="202.628" x2="304.68" y2="202.628"/>
					<line style="fill:none;stroke:#FFFFFF;stroke-miterlimit:10;" x1="236.062" y1="206.032" x2="260.587" y2="206.032"/>
				</g>
			</g>
		</g>
		<g>
			<path style="fill:#5F7ABA;" d="M158.283,115.442H136.4l-4.857,10.469h-11.571l26.255-55.022h12.831l13.26,55.022h-11.65
				L158.283,115.442z M156.333,106.625l-5.236-22.985l-10.664,22.985H156.333z"/>
			<path style="fill:#5F7ABA;" d="M208.082,93.165l-1.097,9.289H173.61l1.097-9.289H208.082z"/>
			<path style="fill:#5F7ABA;" d="M219.042,116.623h24.717l-1.097,9.289h-37.469l1.004-8.501l28.947-37.154h-24.559l1.097-9.289
				h37.469l-1.004,8.501L219.042,116.623z"/>
		</g>
		<path style="fill:#91B8AB;" d="M384.579,270.917L384.579,270.917L384.579,270.917c0.808,14.859,15.392,24.983,29.595,20.544h0v0
			c-8.933,11.902-4.268,29.032,9.466,34.761h0h0c-14.493,3.376-21.931,19.496-15.093,32.713v0h0
			c-13.272-6.73-29.332,0.838-32.59,15.358v0v0c-5.841-13.687-23.008-18.212-34.837-9.183v0v0
			c4.323-14.239-5.919-28.741-20.784-29.428h0h0c12.465-8.129,13.94-25.821,2.994-35.903l0,0h0
			c14.774,1.785,27.276-10.819,25.371-25.578v0v0C358.872,285.067,376.552,283.448,384.579,270.917z"/>
		<path style="fill:#91B8AB;" d="M52.79,436.226h408.664c-19.514-6.685-41.18-36.171-60.038-37.623
			c-18.858-1.452-22.904,15.361-39.775,10.553s-45.913-44.486-69.024-44.789c-9.349-0.123-15.494,6.451-19.498,14.323
			c-4.721,9.284-17.281,10.853-23.992,2.887c-15.592-18.508-40.555-41.398-68.644-41.398c-29.747,0-46.113,27.452-54.142,47.72
			c-3.528,8.905-13.936,13.092-22.473,8.751C73.549,381.232,64.835,431.504,52.79,436.226z"/>
		<g>
			<polygon style="fill:#C9A362;" points="266.261,436.226 257.543,436.226 286.699,260.343 295.418,260.343 			"/>
			<polygon style="fill:#EDE5DA;" points="368.255,436.226 376.973,436.226 347.817,260.343 339.098,260.343 			"/>
			<polygon style="fill:#26314A;" points="284.656,272.663 293.585,271.4 295.418,260.343 286.699,260.343 			"/>
			<polygon style="fill:#C9A362;" points="347.817,260.343 339.098,260.343 339.846,264.854 348.365,263.649 			"/>
		</g>
		<g>
			<g>
				<polygon style="fill:#EDE5DA;" points="239.361,436.226 221.32,327.396 212.602,327.396 230.643,436.226 				"/>
				<polygon style="fill:#26314A;" points="150.88,436.226 168.921,327.396 160.202,327.396 142.161,436.226 				"/>
			</g>
			<path style="fill:#EDE5DA;" d="M231.436,322.46h-70.488c-8.07,0-15.047-5.75-16.589-13.672l-16.112-82.778
				c-0.423-2.168-2.516-3.588-4.691-3.162H82.379l13.973,80.816c2.677,15.485,16.111,26.796,31.826,26.796h32.769h16.93h53.559
				c2.209,0,4-1.791,4-4S233.645,322.46,231.436,322.46z"/>
		</g>
		<path style="fill:#FFFFFF;" d="M78.024,287.824c-6.515,0.894-7.701,2.213-8.435,10.051c-0.027,0.293-0.458,0.293-0.485,0
			c-0.734-7.838-1.919-9.158-8.435-10.051c-0.281-0.039-0.281-0.444,0-0.482c6.515-0.894,7.701-2.213,8.435-10.051
			c0.027-0.293,0.458-0.293,0.485,0c0.734,7.838,1.919,9.158,8.435,10.051C78.304,287.38,78.304,287.785,78.024,287.824z"/>
		<path style="fill:#FFFFFF;" d="M323.751,283.076c-6.515,0.894-7.701,2.213-8.435,10.051c-0.027,0.293-0.458,0.293-0.485,0
			c-0.734-7.838-1.919-9.158-8.435-10.051c-0.281-0.039-0.281-0.444,0-0.482c6.515-0.894,7.701-2.213,8.435-10.051
			c0.027-0.293,0.458-0.293,0.485,0c0.734,7.838,1.919,9.158,8.435,10.051C324.032,282.632,324.032,283.037,323.751,283.076z"/>
		<path style="fill:#FFFFFF;" d="M280.307,71.116c-4.029,0.553-4.762,1.369-5.216,6.215c-0.017,0.181-0.283,0.181-0.3,0
			c-0.454-4.847-1.187-5.663-5.216-6.215c-0.174-0.024-0.174-0.274,0-0.298c4.029-0.553,4.762-1.369,5.216-6.215
			c0.017-0.181,0.283-0.181,0.3,0c0.454,4.847,1.187,5.663,5.216,6.215C280.48,70.842,280.48,71.093,280.307,71.116z"/>
		<path style="fill:#FFFFFF;" d="M206.612,156.131c-6.511,0.893-7.696,2.212-8.429,10.045c-0.027,0.293-0.457,0.293-0.485,0
			c-0.733-7.833-1.918-9.152-8.429-10.045c-0.281-0.038-0.281-0.443,0-0.482c6.511-0.893,7.696-2.212,8.429-10.045
			c0.027-0.293,0.457-0.293,0.485,0c0.733,7.833,1.918,9.152,8.429,10.045C206.892,155.688,206.892,156.093,206.612,156.131z"/>
		<path style="fill:#EDE5DA;" d="M168.917,260.343H357.55c1.81,0,3.277-1.467,3.277-3.277l0,0c0-1.81-1.467-3.277-3.277-3.277
			H168.917c-1.81,0-3.277,1.467-3.277,3.277l0,0C165.64,258.875,167.107,260.343,168.917,260.343z"/>
		<g>
			<path style="fill:#26314A;" d="M196.798,260.89c18.137-3.258,33.934-4.805,38.762,11.789s4.547,22.641,4.547,22.641
				s3.234,3.375,2.109,7.453c0,0,3.088,21.335,3.234,27.687c2.531,7.594,4.899,21.391,4.899,21.391h-20.93l-39.234-60.666
				L196.798,260.89z"/>
			<g>
				<path style="fill:#26314A;" d="M224.533,346.802l22.077,2.565l5.174,16.368l8.666,13.222c0,0,12.129,4.421,8.3,16.996
					l-45.027-23.56c-1.476-4.089,0.733-8.392,4.514-10.839L224.533,346.802z"/>
				<path style="fill:#26314A;" d="M221.563,371.263l-4.181,7.99l15.549,8.136l0.855-1.634c0.616-1.178,2.192-1.43,3.145-0.503
					l9.406,9.152l19.635,10.274l4.181-7.99L221.563,371.263z"/>
			</g>
			<polygon style="fill:#F0887A;" points="217.747,373.788 222.106,398.602 242.075,398.602 239.122,373.788 			"/>
			<path style="fill:#26314A;" d="M239.719,378.804c-6.387,3.023-13.052,4.972-20.206,5.035l-1.271-7.233L239.719,378.804z"/>
			<circle style="fill:#26314A;" cx="130.387" cy="130.11" r="10.589"/>
			<path style="fill:#26314A;" d="M152.775,121.152c11.84-0.173,24.869,11.201,15.634,21.123l-26.861,10.448
				c0,0-5.018-0.525-7.763-10.993C131.039,131.262,136.376,121.393,152.775,121.152z"/>
			<path style="fill:#F0887A;" d="M177.013,189.992c8.062,5.625,9.187,12.375,11.062,18.187c1.875,5.813,7.781,25.666,7.781,25.666
				c7.793-1.291,16.594,0,27.469,1.615l0,17.906h-32.806c-5.307,0-10.004-3.436-11.61-8.494l-10.552-33.224L177.013,189.992z"/>
			<path style="fill:#78423B;" d="M195.857,233.845c0,0-5.906-19.853-7.781-25.666s-3-12.562-11.063-18.187l-8.656,21.656
				l10.552,33.224c0.011,0.036,0.023,0.072,0.035,0.107c0.744,2.27,3.944,2.145,4.711-0.118
				C185.429,239.627,190.726,234.772,195.857,233.845z"/>
			<path style="fill:#50966D;" d="M134.989,174.312c-3.422,3.331-10.539,6.803-17.095,10.639c-5.789,3.387-8.77,10.091-7.449,16.666
				l7.5,37.33c1.226,6.104,0.64,12.434-1.686,18.209l-5.512,13.682c-1.114,2.764,0.921,5.778,3.902,5.778h71.926l-13.125-34.875
				c0,0,0.697-13.53,1.313-18c8.364-15.079,2.813-15.562,2.25-33.75l-16.219-11.391L134.989,174.312z"/>
			<path style="fill:#26314A;" d="M180.308,259.965c-17.2,1.907-45.73,16.504-51.983,16.504l0.123,0.147h58.126L180.308,259.965z"/>
			<path style="fill:#26314A;" d="M113.04,209.107c0,0,20.01,43.992,34.852,49.695c15.75,6.052,24.449-12.181,24.449-12.181
				L113.04,209.107z"/>
			<g>
				<g>
					<path style="fill:#40537D;" d="M219.237,202.926h-12.505c-1.258,0-2.018-0.997-1.696-2.228l6.795-25.974
						c0.322-1.23,1.603-2.228,2.861-2.228h12.505c1.258,0,2.018,0.997,1.696,2.228l-6.795,25.974
						C221.776,201.929,220.495,202.926,219.237,202.926z"/>
					
						<ellipse transform="matrix(0.7792 -0.6268 0.6268 0.7792 -62.9234 173.7048)" style="fill:#26314A;" cx="215.058" cy="176.153" rx="1.602" ry="1.237"/>
				</g>
				<path style="fill:#F0887A;" d="M114.954,186.73c14.463-11.782,42.887,42.777,42.887,42.777l41.625-34.312
					c0,0,3.308-8.324,9.776-10.574l-0.866,3.309c-0.29,1.11,0.738,2.115,1.841,1.798l11.326-3.252l5.676-4.674
					c0.76-0.626,1.906-0.371,2.33,0.518l0,0c0.338,0.71,0.158,1.559-0.439,2.07l-5.879,5.039l-5.766,2.953l6.328,0.141l0.234-0.89
					c0.262-0.995,1.263-1.605,2.267-1.382v0c0.442,0.098,0.764,0.482,0.773,0.935c0.023,1.238-0.114,3.561-1.446,3.869
					c0.703,1.828-0.984,4.078-2.953,4.219c-1.969,0.141-6.75,1.547-6.75,1.547l4.5,1.828l3.085-1.873
					c0.522-0.317,1.179-0.31,1.694,0.018l0,0c0.341,0.217,0.36,0.708,0.037,0.951l-3.086,2.315c-0.848,0.636-1.88,0.98-2.941,0.98
					l-12.429,0c-9.599,16.262-22.482,30.802-37.381,44.286c-7.227,6.541-18.278,6.318-25.238-0.506
					C126.677,231.678,98.663,200.001,114.954,186.73z"/>
				
					<line style="fill:none;stroke:#78423B;stroke-linecap:round;stroke-linejoin:round;stroke-miterlimit:10;" x1="224.685" y1="195.336" x2="214.747" y2="196.461"/>
			</g>
			<path style="fill:#5F7ABA;" d="M140.12,322.598h59.345l15.984,56.206h30c0,0-4.809-49.175-6.529-63.494
				c-1.721-14.319-5.846-20.745-25.346-23.907c-19.5-3.162-48-5.224-48-5.224L140.12,322.598z"/>
			<g>
				<path style="fill:#26314A;" d="M180.531,306.072l35.015,3.516c0.21,0.021,0.376,0.169,0.431,0.36l0.003,0.012l0,0.001
					c0.196,0.386,0.415,0.817,0.645,1.205c0.238,0.391,0.482,0.772,0.755,1.127c0.262,0.364,0.568,0.683,0.877,0.996
					c0.31,0.317,0.67,0.565,1.031,0.843l0.003,0.002l0.061,0.044c0.141,0.101,0.22,0.259,0.229,0.419
					c0.092,1.704,0.464,3.547,0.714,5.325l0.897,5.379l1.872,10.756c1.247,7.173,2.469,14.353,3.831,21.506l0.005,0.053
					c0.052,2.707,0.178,5.421,0.405,8.118c0.123,1.348,0.277,2.693,0.472,4.026c0.215,1.324,0.478,2.665,0.927,3.857l0.008,0.022
					c0.097,0.259-0.033,0.547-0.292,0.645c-0.259,0.097-0.547-0.033-0.645-0.292c-0.003-0.008-0.007-0.018-0.009-0.027
					c-0.433-1.381-0.606-2.738-0.758-4.102c-0.158-1.36-0.273-2.72-0.356-4.08c-0.179-2.72-0.294-5.436-0.343-8.16l0.005,0.052
					l-4.287-21.429c-0.718-3.572-1.358-7.159-1.962-10.753l-0.882-5.399c-0.255-1.826-0.54-3.577-0.603-5.514l0.29,0.462
					l-0.004-0.001c-1.046-0.324-1.953-1.049-2.598-1.905c-0.32-0.433-0.599-0.893-0.806-1.382c-0.211-0.493-0.373-0.977-0.452-1.538
					l0-0.001l0.434,0.371l-35.015-3.516c-0.275-0.028-0.475-0.273-0.448-0.547C180.012,306.245,180.257,306.045,180.531,306.072z"/>
			</g>
			<path style="fill:#26314A;" d="M219.603,292.609c-0.335-0.082-0.668-0.164-1.015-0.243l-22.306,3.288l-56.162,26.944h35.996
				c8.92,0,17.641-2.912,24.619-8.468C211.56,305.512,218.273,294.828,219.603,292.609z"/>
			<path style="fill:#5F7ABA;" d="M112.966,276.263c0,0-10.766,23.228,1.047,35.416c11.812,12.188,27.844,13.359,46.781,7.547
				c18.937-5.813,50.719-18.984,59.062-27.047c8.344-8.063,12.101-19.697,3.469-28.625c-9.541-9.867-49.611,1.626-76.787,10.629
				c-4.865,1.612-9.959,2.396-15.084,2.327L112.966,276.263z"/>
			<g>
				<path style="fill:#78423B;" d="M219.575,392.491h22.781l1.477,7.241c0.553,2.709,2.26,5.043,4.675,6.389l9.317,5.194
					c1.608,0.896,3.398,1.426,5.237,1.495c4.312,0.162,13.056,1.894,15.153,13.01h-58.641c-0.229-4.387,0.147-8.55,1.558-12.327
					c0.9-2.407,1.062-5.029,0.646-7.565L219.575,392.491z"/>
				<path style="fill:#26314A;" d="M216.763,425.819v10.406h20.25v-2.129c0-1.534,1.477-2.634,2.947-2.197l14.513,4.325h25.572
					v-10.406H216.763z"/>
				<path style="fill:#78423B;" d="M219.575,392.491l-8.387,1.128c-1.366,0.184-2.154,1.648-1.556,2.889l0.424,0.879
					c0.499,1.036,1.727,1.494,2.783,1.038l7.2-3.106L219.575,392.491z"/>
			</g>
			<g>
				<path style="fill:#26314A;" d="M215.497,373.003c2.262,0.133,4.523,0.193,6.785,0.242c2.262,0.051,4.523,0.04,6.785,0.063
					c2.262-0.029,4.523-0.034,6.785-0.091c2.262-0.06,4.523-0.129,6.785-0.275c0.467-0.03,0.871,0.324,0.901,0.792
					s-0.324,0.87-0.792,0.901c-0.035,0.002-0.075,0.002-0.109,0c-2.262-0.146-4.523-0.215-6.785-0.275
					c-2.262-0.057-4.523-0.062-6.785-0.091c-2.262,0.023-4.523,0.012-6.785,0.063c-2.262,0.049-4.523,0.109-6.785,0.242
					c-0.434,0.025-0.806-0.305-0.831-0.739c-0.025-0.433,0.305-0.806,0.739-0.831C215.434,373.002,215.468,373.002,215.497,373.003z
					"/>
			</g>
			<g>
				<path style="fill:#26314A;" d="M220.911,362.183l12.177-12.434c0.302-0.308,0.797-0.313,1.105-0.012s0.314,0.797,0.012,1.105
					c-0.005,0.005-0.013,0.013-0.018,0.018l-12.573,12.034c-0.2,0.191-0.516,0.184-0.707-0.015
					C220.72,362.683,220.724,362.375,220.911,362.183z"/>
			</g>
			<g>
				<path style="fill:#26314A;" d="M222.114,365.78l11.316-3.89c0.356-0.122,0.744,0.067,0.866,0.423
					c0.122,0.356-0.067,0.744-0.423,0.866c-0.008,0.003-0.019,0.006-0.027,0.009l-11.466,3.422
					c-0.231,0.069-0.473-0.062-0.542-0.293C221.771,366.092,221.894,365.855,222.114,365.78z"/>
			</g>
			
				<path style="fill:none;stroke:#26314A;stroke-width:0.8666;stroke-linecap:round;stroke-linejoin:round;stroke-miterlimit:10;" d="
				M151.636,185.87c0,0,2.974,15.561,3.341,27.317"/>
			<circle style="fill:#FFFFFF;" cx="158.752" cy="193.593" r="1.743"/>
			<circle style="fill:#FFFFFF;" cx="159.468" cy="204.669" r="1.743"/>
			<path style="fill:#F0887A;" d="M140.755,155.89l16.453,3.305c-1.125,7.242-1.406,15.75,3.586,19.406
				c-4.922,5.625-16.242,7.664-25.805-4.289l0,0c2.535-2.219,4.163-5.295,4.571-8.639L140.755,155.89z"/>
			<path style="fill:#26314A;" d="M155.873,164.452l-10.455-7.625l-4.663-0.937l-0.731,5.988c-0.171,1.401,0.953,2.643,2.362,2.57
				c1.263-0.065,2.5-0.258,3.683,0.207C149.516,166.011,153.876,165.688,155.873,164.452z"/>
			<path style="fill:#F0887A;" d="M168.529,139.686c-0.158,3.42-0.442,9.494-0.515,10.748c0.936,3.744,0.395,15.165-11.043,14.871
				c-12.139-0.312-15.994-10.295-15.994-10.295l1.976-7.903c0,0,4.883-1.673,6.439-6.819c0.32-1.058,1.269-1.793,2.373-1.843
				c3.03-0.138,6.077-1.467,7.099-4.96c0.208,3.12-3.635,5.511-3.635,5.511s4.57,1.456,7.482-3.64c0,0-0.104,1.976-1.56,4.056
				c2.315,0.565,4.324-0.097,5.676-0.82C167.62,138.167,168.571,138.787,168.529,139.686z"/>
			<circle style="fill:#E36F5F;" cx="153.885" cy="153.24" r="3.228"/>
			<path style="fill:#FFFFFF;" d="M152.209,119.526c-1.101-0.046-2.197,0.195-3.157,0.735c-0.947,0.532-1.842,1.146-2.674,1.856
				c-4.942,4.213-7.62,11.088-7.958,20.436l3.998,0.145c0.291-8.065,2.558-14.129,6.555-17.536
				c2.675-2.281,6.169-3.441,10.416-3.469c0.421-0.003,0.567-0.582,0.191-0.77C157.583,119.928,154.392,119.617,152.209,119.526z"/>
			
				<ellipse transform="matrix(0.1324 -0.9912 0.9912 0.1324 -9.6475 281.9714)" style="fill:#26314A;" cx="156.242" cy="146.496" rx="1.965" ry="1.478"/>
			
				<ellipse transform="matrix(0.1324 -0.9912 0.9912 0.1324 -2.857 292.1958)" style="fill:#26314A;" cx="165.477" cy="147.73" rx="1.965" ry="1.478"/>
			<path style="fill:#78423B;" d="M162.793,145.833l-0.272,2.298c-0.019,0.326,0.049,0.659,0.199,0.953
				c0.076,0.154,0.167,0.27,0.288,0.422l0.365,0.483l0.368,0.486c0.13,0.208,0.206,0.457,0.201,0.704
				c-0.011,0.493-0.301,0.964-0.756,1.181c-0.222,0.115-0.505,0.13-0.666,0.146c-0.188,0.023-0.372,0.055-0.548,0.095
				c-0.348,0.068-0.688,0.236-0.783,0.409c-0.118,0.214-0.387,0.292-0.601,0.175c-0.214-0.118-0.292-0.387-0.175-0.601
				c0.023-0.043,0.053-0.08,0.087-0.111l0.04-0.037c0.445-0.41,0.918-0.437,1.323-0.5c0.399-0.056,0.877-0.001,1.088-0.097
				c0.263-0.096,0.465-0.38,0.462-0.668c0.003-0.142-0.035-0.283-0.121-0.4l-0.362-0.427l-0.371-0.425
				c-0.132-0.143-0.298-0.324-0.406-0.515c-0.235-0.384-0.356-0.836-0.358-1.288l0.134-2.36c0.014-0.239,0.218-0.422,0.457-0.408
				s0.422,0.218,0.408,0.457C162.795,145.813,162.794,145.825,162.793,145.833z"/>
			<path style="fill:#78423B;" d="M157.229,153.245c0.134,0.582,0.46,1.121,0.933,1.523c0.462,0.421,1.076,0.664,1.7,0.811
				c0.629,0.151,1.299,0.141,1.926,0.011c0.608-0.139,1.247-0.453,1.462-0.857c0.15-0.281,0.499-0.388,0.78-0.238
				c0.281,0.15,0.388,0.499,0.238,0.78c-0.038,0.071-0.088,0.13-0.146,0.178l-0.013,0.01c-0.744,0.596-1.484,0.729-2.211,0.815
				c-0.727,0.084-1.449,0.037-2.161-0.09c-0.714-0.132-1.397-0.426-2.019-0.843c-0.615-0.43-1.123-1.035-1.482-1.733
				c-0.136-0.261-0.035-0.584,0.226-0.72s0.584-0.035,0.72,0.226C157.203,153.158,157.219,153.204,157.229,153.245z"/>
			<path style="fill:#26314A;" d="M152.942,142.306c0.833-0.563,1.813-0.788,2.796-0.847c0.494-0.006,0.997,0.033,1.491,0.163
				c0.49,0.136,0.981,0.353,1.374,0.713c0.178,0.164,0.19,0.441,0.027,0.619c-0.123,0.134-0.309,0.174-0.47,0.117l-0.032-0.012
				c-0.731-0.261-1.525-0.366-2.349-0.329c-0.824,0.009-1.651,0.163-2.465,0.358l-0.024,0.006c-0.235,0.056-0.472-0.089-0.528-0.324
				C152.718,142.589,152.796,142.405,152.942,142.306z"/>
			<path style="fill:#26314A;" d="M163.542,142.844c0.41-0.192,0.801-0.296,1.227-0.363c0.42-0.076,0.856-0.068,1.295-0.025
				c0.443,0.04,0.877,0.204,1.286,0.407c0.402,0.228,0.744,0.558,0.987,0.934c0.131,0.202,0.073,0.472-0.129,0.602
				c-0.146,0.094-0.327,0.091-0.465,0.005l-0.056-0.035c-0.293-0.181-0.551-0.36-0.854-0.466c-0.291-0.13-0.606-0.194-0.933-0.259
				c-0.331-0.056-0.675-0.053-1.027-0.058c-0.346,0.008-0.723,0.04-1.054,0.077l-0.044,0.005c-0.239,0.027-0.454-0.145-0.481-0.384
				C163.272,143.096,163.378,142.921,163.542,142.844z"/>
			<ellipse style="fill:#FFFFFF;" cx="139.938" cy="149.027" rx="7.324" ry="8.554"/>
			<path style="fill:#B3CCC4;" d="M140.8,140.536c-0.283-0.039-0.57-0.064-0.862-0.064c-0.901,0-1.76,0.199-2.557,0.547
				c0.239-0.03,0.481-0.047,0.726-0.047c3.763,0,6.824,3.613,6.824,8.055c0,4.441-3.061,8.054-6.824,8.054
				c-0.246,0-0.488-0.017-0.727-0.047c0.798,0.348,1.657,0.547,2.559,0.547c0.292,0,0.578-0.025,0.861-0.064
				c2.99-1.274,5.132-4.594,5.132-8.49C145.93,145.131,143.789,141.811,140.8,140.536z"/>
			<path style="fill:none;stroke:#26314A;stroke-linecap:round;stroke-linejoin:round;stroke-miterlimit:10;" d="M110.136,288.846
				h5.208c1.081,0,2.014,0.76,2.233,1.819l2.696,13.032c0.672,3.247-0.256,6.619-2.493,9.065l0,0"/>
			
				<line style="fill:none;stroke:#26314A;stroke-linecap:round;stroke-linejoin:round;stroke-miterlimit:10;" x1="113.745" y1="276.274" x2="137.498" y2="276.274"/>
			<path style="fill:none;stroke:#26314A;stroke-linecap:round;stroke-linejoin:round;stroke-miterlimit:10;" d="M115.312,283.288
				c0,0,25.033-7.577,31.796-9.778"/>
			<g>
				<path style="fill:#26314A;" d="M126.816,289.927c1.179-1.495,2.413-2.859,3.714-4.195c1.3-1.328,2.663-2.593,4.081-3.792
					c1.41-1.209,2.918-2.304,4.464-3.334c1.551-1.027,3.199-1.902,4.888-2.68c0.192-0.089,0.42-0.005,0.508,0.188
					c0.086,0.187,0.009,0.407-0.172,0.501l-0.014,0.007c-1.612,0.828-3.177,1.744-4.647,2.809c-1.465,1.068-2.888,2.195-4.215,3.434
					c-1.335,1.228-2.613,2.519-3.826,3.867c-1.205,1.345-2.377,2.761-3.413,4.194l-0.016,0.022c-0.274,0.379-0.803,0.464-1.182,0.19
					c-0.379-0.274-0.464-0.803-0.19-1.182C126.801,289.946,126.81,289.935,126.816,289.927z"/>
			</g>
			<g>
				<path style="fill:#26314A;" d="M126.844,281.087c0.679-0.159,1.305-0.184,1.97-0.115c0.654,0.075,1.317,0.286,1.89,0.664
					c0.565,0.378,1.06,0.895,1.352,1.494c0.188,0.284,0.26,0.604,0.391,0.906c0.093,0.31,0.155,0.625,0.232,0.937l0,0.002
					l-0.617-0.398c1.305-0.291,2.563-0.402,3.85-0.458c1.281-0.047,2.562-0.015,3.836,0.093c1.271,0.127,2.542,0.282,3.791,0.554
					c1.254,0.244,2.485,0.588,3.706,0.958l0.005,0.002l-0.314,0.009c7.272-2.79,14.723-5.07,22.246-7.042
					c7.524-1.976,15.135-3.594,22.779-5.012c7.653-1.408,15.319-2.591,23.067-3.528c4.024-0.418,8.182,0.919,11.227,3.569
					c0.77,0.651,1.462,1.393,2.076,2.191c0.621,0.803,1.14,1.586,1.716,2.379l3.347,4.765c0.159,0.226,0.104,0.538-0.122,0.697
					c-0.224,0.157-0.531,0.105-0.692-0.115l-3.428-4.707c-1.155-1.588-2.176-3.174-3.636-4.348
					c-2.834-2.434-6.668-3.624-10.378-3.266c-7.668,0.903-15.36,2.064-22.981,3.442c-7.626,1.389-15.218,2.978-22.719,4.923
					c-7.5,1.94-14.925,4.188-22.162,6.937c-0.102,0.039-0.208,0.041-0.305,0.012l-0.009-0.003l-0.005-0.001
					c-1.19-0.356-2.389-0.687-3.609-0.92c-1.215-0.261-2.449-0.406-3.683-0.526c-1.236-0.101-2.477-0.128-3.713-0.078
					c-1.227,0.053-2.488,0.179-3.641,0.44c-0.274,0.062-0.546-0.107-0.613-0.379l-0.005-0.02l0-0.001
					c-0.069-0.266-0.121-0.54-0.199-0.801c-0.111-0.242-0.167-0.521-0.318-0.735c-0.231-0.48-0.603-0.849-1.02-1.135
					c-0.424-0.281-0.929-0.448-1.46-0.509c-0.521-0.06-1.107-0.027-1.591,0.087l-0.035,0.008c-0.269,0.063-0.538-0.104-0.601-0.372
					C126.408,281.419,126.575,281.15,126.844,281.087L126.844,281.087z"/>
			</g>
			<path style="fill:#26314A;" d="M223.325,268.65c0,0,1.213,11.161-3.302,20.583C224.781,283.104,227.359,274.139,223.325,268.65z"
				/>
		</g>
		<g>
			<polygon style="fill:#C9A362;" points="109.459,436.226 127.5,327.396 118.781,327.396 100.74,436.226 			"/>
			<path style="fill:#26314A;" d="M117.201,336.925c3.237-1.511,6.706-2.347,9.182-2.792l1.117-6.737h-8.719L117.201,336.925z"/>
			<polygon style="fill:#EDE5DA;" points="197.94,436.226 179.899,327.396 171.181,327.396 189.221,436.226 			"/>
			<g>
				<path style="fill:#C9A362;" d="M190.015,330.46h-70.488c-11.891,0-22.17-8.472-24.442-20.143l-16.112-82.779
					c-0.422-2.168,0.994-4.269,3.162-4.69c2.176-0.426,4.269,0.994,4.691,3.162l16.112,82.778
					c1.542,7.922,8.519,13.672,16.589,13.672h70.488c2.209,0,4,1.791,4,4S192.224,330.46,190.015,330.46z"/>
			</g>
		</g>
		<g>
			<path style="fill:#C9A362;" d="M168.917,260.343h80.584c1.81,0,3.277-1.467,3.277-3.277l0,0c0-1.81-1.467-3.277-3.277-3.277
				h-80.584c-1.81,0-3.277,1.467-3.277,3.277l0,0C165.64,258.875,167.107,260.343,168.917,260.343z"/>
			<g>
				<polygon style="fill:#C9A362;" points="158.213,436.226 149.494,436.226 178.65,260.343 187.369,260.343 				"/>
				<polygon style="fill:#EDE5DA;" points="260.206,436.226 268.925,436.226 239.768,260.343 231.05,260.343 				"/>
				<polygon style="fill:#26314A;" points="176.608,272.663 185.536,271.4 187.369,260.343 178.65,260.343 				"/>
				<polygon style="fill:#C9A362;" points="239.768,260.343 231.05,260.343 231.798,264.854 240.317,263.649 				"/>
			</g>
		</g>
		<g>
			<path style="fill:#C2B4A1;" d="M270.869,234.108c4.096,0,6.76,3.525,8.029,6.001c1.268,2.473,3.027,4.398,3.027,4.398H261.03
				l-2.869,6.593h-2.163l-2.057-6.593C253.942,244.506,258.477,234.108,270.869,234.108z"/>
			<path style="fill:#EDE5DA;" d="M257.926,250.915c0-11.745,8.139-16.807,12.943-16.807h-15.271L257.926,250.915z"/>
			<path style="fill:#FFFFFF;" d="M257.926,250.915c0,0,0.469-20.05,14.437-23.518h-30.305c-2.839,0-5.569,1.101-7.595,3.09
				c-3.239,3.179-7.092,9.291-7.232,20.429C227.232,250.915,246.77,245.933,257.926,250.915z"/>
			<path style="fill:#FFFFFF;" d="M191.624,247.197c11.56,0,14.906-6.3,22.781-7.519c1.155-0.179,2.244-0.243,3.262-0.195h29.876
				l-21.938,10.063l-3.586-2.349H191.624z"/>
			<path style="fill:#EDE5DA;" d="M257.926,250.915c1.313-7.3,3.843-12.905,8.813-12.643c8.906,0.469,10.781,12.281,22.031,10.219
				v3.844L257.926,250.915z"/>
			<path style="fill:#26314A;" d="M222.301,253.629h71.25c0,0-11.203-4.342-16.125-4.764s-15.656-0.938-19.5,3.469
				c-5.673-4.313-11.016-5.274-18.469-3.739C232.004,250.131,222.301,253.629,222.301,253.629z"/>
			<path style="fill:#EDE5DA;" d="M257.926,250.915c-0.469-8.331-5.25-12.456-13.125-11.237
				c-7.875,1.219-16.219,10.725-22.781,7.519v5.137C222.02,252.334,247.989,244.176,257.926,250.915z"/>
			<rect x="191.624" y="247.197" style="fill:#C2B4A1;" width="30.396" height="3.842"/>
			<path style="fill:#F0887A;" d="M219.268,237.622c0.094-0.639,0.468-1.196,1.02-1.53c1.622-0.983,5.322-2.928,9.701-3.275
				c5.906-0.469,13.896,1.519,16.745,6.666h-15.321l1.688,1.195c1.151,0.815,1.106,2.537-0.086,3.291l0,0
				c-0.535,0.338-1.199,0.4-1.787,0.168l-10.623-4.202C219.676,239.567,219.123,238.609,219.268,237.622L219.268,237.622z"/>
			<path style="fill:#78423B;" d="M231.412,239.483l-2.109-1.566c-0.658-0.489-0.272-1.539,0.545-1.472
				c2.463,0.2,6.075,0.876,8.156,3.038H231.412z"/>
			<rect x="189.887" y="251.038" style="fill:#5B7A6E;" width="32.414" height="2.591"/>
			<path style="fill:#709687;" d="M257.926,253.506c10.746-8.437,26.94,0.124,35.625,0.124v-2.591
				c-8.685,0-24.879-8.561-35.625-0.124c-10.746-8.437-26.939,0.124-35.625,0.124v2.591
				C230.987,253.629,247.18,245.068,257.926,253.506z"/>
		</g>
		<g>
			<polygon style="fill:#F0887A;" points="384.54,436.226 318.404,436.226 297.18,305.327 363.316,305.327 			"/>
			<polygon style="fill:#FFFFFF;" points="343.1,432.692 323.048,432.692 302.97,308.86 323.022,308.86 			"/>
			<path style="fill:#F0887A;" d="M410.62,436.226h-66.947l-21.224-130.899h67.927c1.412,0,2.615,1.024,2.841,2.418L413.5,432.841
				C413.787,434.616,412.417,436.226,410.62,436.226z"/>
			<polygon style="fill:#EDE5DA;" points="405.843,385.622 338.128,385.622 333.314,355.931 401.029,355.931 			"/>
			<g>
				<g>
					<polygon style="fill:#EDE5DA;" points="394.146,313.476 326.43,313.476 326.202,312.067 393.917,312.067 					"/>
					<polygon style="fill:#EDE5DA;" points="394.734,317.1 327.018,317.1 326.789,315.691 394.505,315.691 					"/>
				</g>
				<g>
					<polygon style="fill:#EDE5DA;" points="412.368,425.861 344.652,425.861 344.424,424.452 412.139,424.452 					"/>
					<polygon style="fill:#EDE5DA;" points="412.955,429.485 345.24,429.485 345.011,428.076 412.727,428.076 					"/>
				</g>
			</g>
			<polygon style="fill:#78423B;" points="346.333,436.226 343.672,436.226 322.449,305.327 325.109,305.327 			"/>
			<polygon style="fill:#78423B;" points="321.064,436.226 318.404,436.226 297.18,305.327 299.841,305.327 			"/>
			<g>
				<polygon style="fill:#EDE5DA;" points="310.918,308.86 310.122,308.86 330.2,432.692 330.996,432.692 				"/>
				<polygon style="fill:#EDE5DA;" points="325.246,432.692 326.042,432.692 305.964,308.86 305.168,308.86 				"/>
				<polygon style="fill:#EDE5DA;" points="308.441,308.86 307.645,308.86 327.723,432.692 328.519,432.692 				"/>
				<polygon style="fill:#EDE5DA;" points="318.347,308.86 317.551,308.86 337.629,432.692 338.425,432.692 				"/>
				<polygon style="fill:#EDE5DA;" points="320.824,308.86 320.027,308.86 340.105,432.692 340.902,432.692 				"/>
				<polygon style="fill:#EDE5DA;" points="315.87,308.86 315.074,308.86 335.152,432.692 335.948,432.692 				"/>
				<polygon style="fill:#EDE5DA;" points="313.394,308.86 312.598,308.86 332.676,432.692 333.472,432.692 				"/>
			</g>
			
				<line style="fill:none;stroke:#78423B;stroke-width:0.7961;stroke-linecap:round;stroke-linejoin:round;stroke-miterlimit:10;" x1="389.668" y1="308.86" x2="409.746" y2="432.692"/>
		</g>
		<polygon style="fill:#26314A;" points="355.105,331.965 338.425,436.226 369.278,436.226 		"/>
		<g>
			<g>
				<rect x="355.105" y="331.965" style="fill:#40537D;" width="2.873" height="104.26"/>
				
					<rect x="357.978" y="331.965" transform="matrix(-1 -1.224647e-16 1.224647e-16 -1 734.0112 768.1911)" style="fill:#5F7ABA;" width="18.055" height="104.26"/>
			</g>
			<rect x="360.182" y="331.965" style="fill:#EDE5DA;" width="19.936" height="104.26"/>
			<g>
				<rect x="361.368" y="331.965" style="fill:#B3CCC4;" width="0.513" height="104.26"/>
				<rect x="362.899" y="331.965" style="fill:#B3CCC4;" width="0.513" height="104.26"/>
				<rect x="364.43" y="331.965" style="fill:#B3CCC4;" width="0.513" height="104.26"/>
				<rect x="365.96" y="331.965" style="fill:#B3CCC4;" width="0.513" height="104.26"/>
				<rect x="367.491" y="331.965" style="fill:#B3CCC4;" width="0.513" height="104.26"/>
				<rect x="369.022" y="331.965" style="fill:#B3CCC4;" width="0.513" height="104.26"/>
			</g>
			<g>
				<rect x="370.552" y="331.965" style="fill:#40537D;" width="2.873" height="104.26"/>
				
					<rect x="373.425" y="331.965" transform="matrix(-1 -1.224647e-16 1.224647e-16 -1 803.6023 768.1911)" style="fill:#5F7ABA;" width="56.752" height="104.26"/>
			</g>
			<rect x="395.2" y="331.965" style="fill:#EDE5DA;" width="13.202" height="104.26"/>
			<path style="fill:#B3CCC4;" d="M422.101,383.66c0-3.539-4.21-6.622-10.433-8.23c-1.08-0.279-2.085-0.815-2.872-1.606
				c-1.888-1.898-4.326-3.048-6.995-3.048c-2.669,0-5.106,1.15-6.995,3.048c-0.787,0.791-1.792,1.327-2.872,1.606
				c-6.223,1.609-10.433,4.691-10.433,8.23s4.21,6.622,10.433,8.23c1.08,0.279,2.085,0.815,2.872,1.606
				c1.888,1.898,4.326,3.048,6.995,3.048c2.669,0,5.106-1.15,6.995-3.048c0.787-0.791,1.792-1.327,2.872-1.606
				C417.891,390.282,422.101,387.199,422.101,383.66z"/>
			
				<line style="fill:none;stroke:#40537D;stroke-width:0.7961;stroke-linecap:round;stroke-linejoin:round;stroke-miterlimit:10;" x1="426.997" y1="334.86" x2="426.997" y2="433.332"/>
		</g>
		<g>
			<path style="fill:#FFFFFF;" d="M308.851,233.352l1.672,12.497c0.414,3.098,3.057,5.41,6.182,5.41h7.882
				c3.125,0,5.768-2.313,6.182-5.41l1.672-12.497c0.159-1.19-0.766-2.247-1.966-2.247h-19.657
				C309.618,231.105,308.692,232.162,308.851,233.352z"/>
			<g>
				<path style="fill:#FFFFFF;" d="M332.425,249.037h-6.146v-2h6.146c2.707,0,4.979-1.941,5.402-4.615l0.238-1.508
					c0.25-1.583-0.203-3.189-1.244-4.407s-2.557-1.917-4.158-1.917h-2.548v-2h2.548c2.188,0,4.258,0.954,5.679,2.618
					c1.421,1.664,2.04,3.858,1.698,6.019l-0.238,1.508C339.225,246.386,336.122,249.037,332.425,249.037z"/>
			</g>
			<path style="fill:#EDE5DA;" d="M309.065,234.949l1.458,10.9c0.414,3.098,3.057,5.41,6.182,5.41h7.882
				c1.365,0,2.623-0.46,3.658-1.215C319.556,248.869,309.708,239.755,309.065,234.949z"/>
			<path style="fill:#FFFFFF;" d="M327.656,253.788h-12.831c-1.342,0-2.667-0.305-3.874-0.892l-1.669-0.812
				c-0.76-0.37-0.497-1.512,0.348-1.512h23.22c0.845,0,1.108,1.143,0.348,1.512l-1.669,0.812
				C330.323,253.483,328.999,253.788,327.656,253.788z"/>
		</g>
		
			<line style="fill:none;stroke:#91B8AB;stroke-linecap:round;stroke-linejoin:round;stroke-miterlimit:10;" x1="24.919" y1="436.226" x2="475.082" y2="436.226"/>
		<g>
			<g>
				<g>
					<circle style="opacity:0.45;fill:#FFFFFF;" cx="329.326" cy="163.924" r="26.524"/>
					<g>
						<g>
							<path style="fill:#FFFFFF;" d="M340.778,178.626c0.768,0.793,2.035,0.814,2.828,0.046c7.793-7.546,8.365-19.896,1.3-28.116
								c-0.707-0.829-1.982-0.933-2.82-0.213c-0.838,0.72-0.934,1.982-0.213,2.821c5.686,6.616,5.225,16.558-1.05,22.634
								C340.03,176.566,340.01,177.833,340.778,178.626z"/>
						</g>
						<g>
							<path style="fill:#FFFFFF;" d="M336.204,148.751c0.152,0.157,0.332,0.291,0.539,0.395c0.387,0.195,0.769,0.406,1.143,0.632
								c0.945,0.572,2.174,0.27,2.746-0.675c0.572-0.945,0.275-2.173-0.675-2.747c-0.464-0.281-0.936-0.542-1.418-0.784
								c-0.987-0.496-2.189-0.098-2.685,0.888C335.461,147.242,335.628,148.157,336.204,148.751z"/>
						</g>
					</g>
				</g>
				<path style="fill:#5F7ABA;" d="M375.414,237.474c2.502,3.386,13.177-4.501,10.676-7.887l-23.848-29.565
					c-1.852-2.506-9.932,3.464-8.081,5.97L375.414,237.474z"/>
				<path style="fill:#40537D;" d="M305.526,181.508c9.711,13.144,28.239,15.928,41.384,6.216
					c13.144-9.711,15.928-28.239,6.216-41.384c-9.711-13.144-28.239-15.928-41.384-6.216
					C298.598,149.835,295.815,168.363,305.526,181.508z M309.866,178.301c-7.94-10.747-5.665-25.897,5.083-33.837
					c10.747-7.94,25.897-5.665,33.837,5.083c7.94,10.747,5.665,25.897-5.083,33.837
					C332.955,191.324,317.806,189.048,309.866,178.301z"/>
				<path style="fill:#40537D;" d="M355.137,205.093c1.293,1.751,7.251-2.65,5.957-4.401l-12.912-17.476l-5.957,4.401
					L355.137,205.093z"/>
			</g>
			
				<line style="fill:none;stroke:#FFFFFF;stroke-width:3.5612;stroke-linecap:round;stroke-linejoin:round;stroke-miterlimit:10;" x1="378.124" y1="182.744" x2="368.283" y2="178.914"/>
			
				<line style="fill:none;stroke:#FFFFFF;stroke-width:3.5612;stroke-linecap:round;stroke-linejoin:round;stroke-miterlimit:10;" x1="381.644" y1="165.067" x2="371.087" y2="164.834"/>
			
				<line style="fill:none;stroke:#FFFFFF;stroke-width:3.5612;stroke-linecap:round;stroke-linejoin:round;stroke-miterlimit:10;" x1="378.906" y1="147.252" x2="368.906" y2="150.644"/>
			
				<line style="fill:none;stroke:#FFFFFF;stroke-width:3.5612;stroke-linecap:round;stroke-linejoin:round;stroke-miterlimit:10;" x1="370.24" y1="131.448" x2="362.003" y2="138.056"/>
			
				<line style="fill:none;stroke:#FFFFFF;stroke-width:3.5612;stroke-linecap:round;stroke-linejoin:round;stroke-miterlimit:10;" x1="356.691" y1="119.562" x2="351.211" y2="128.588"/>
		</g>
		<g>
			<path style="fill:#FFFFFF;" d="M67.742,152.773v36.651c0,3.467,2.797,6.277,6.248,6.277h22.726c3.451,0,6.248-2.81,6.248-6.277
				v-10.615c0-0.981,0.533-1.883,1.391-2.352l8.418-4.606c0.593-0.324,0.593-1.18,0-1.504l-8.418-4.606
				c-0.857-0.469-1.391-1.371-1.391-2.352v-10.615c0-3.467-2.797-6.277-6.248-6.277H73.991
				C70.54,146.496,67.742,149.307,67.742,152.773z"/>
			<g>
				<polygon style="fill:#50966D;" points="83.147,179.551 73.028,169.391 75.754,166.701 83.161,174.138 94.721,162.647 
					97.433,165.35 				"/>
			</g>
		</g>
	</g>
</g>
</svg>
